<?xml version="1.0" encoding="UTF-8"?>
<svg xmlns="http://www.w3.org/2000/svg" xmlns:xlink="http://www.w3.org/1999/xlink" width="300px" height="125px" viewBox="0 0 225 94" version="1.1">
<g id="surface1">
<path style=" stroke:none;fill-rule:nonzero;fill:rgb(100%,100%,100%);fill-opacity:1;" d="M 25.878906 36.933594 C 26.839844 40.566406 26.945312 43.875 26.945312 43.875 C 29.925781 39.605469 33.070312 35.757812 37.0625 32.503906 C 41.429688 28.980469 44.464844 26.84375 50.054688 24.332031 C 55.007812 22.089844 57.40625 21.449219 59.855469 20.648438 C 62.730469 19.742188 64.699219 19.207031 67.414062 18.566406 C 70.023438 17.980469 72.527344 17.5 72.527344 18.140625 C 72.527344 18.566406 69.597656 19.636719 69.171875 19.847656 C 67.148438 20.757812 65.230469 21.449219 60.972656 23.425781 C 55.859375 25.828125 52.132812 28.550781 47.820312 32.128906 C 43.933594 35.332031 40.203125 39.710938 36.902344 44.140625 C 36.050781 45.261719 33.761719 47.933594 31.898438 50.976562 C 30.195312 53.699219 28.648438 56.582031 28.117188 57.488281 C 27.160156 59.25 25.292969 63.257812 25.292969 63.257812 C 25.292969 63.257812 27 63.84375 30.085938 63.683594 C 33.601562 63.46875 36.316406 63.097656 40.789062 60.800781 C 45.796875 58.238281 49.097656 55.140625 52.71875 51.351562 C 56.179688 47.664062 58.683594 44.675781 61.769531 40.03125 C 63.742188 36.988281 65.339844 34.746094 67.949219 29.511719 C 69.597656 26.203125 70.292969 22.570312 70.769531 22.464844 C 71.304688 22.304688 71.460938 25.773438 70.984375 28.820312 C 69.863281 36.292969 69.121094 38.429688 66.882812 43.234375 C 65.285156 46.757812 62.890625 50.441406 59.480469 53.914062 C 55.96875 57.542969 53.039062 60.054688 48.40625 63.097656 C 45.050781 65.285156 42.707031 66.40625 39.035156 67.421875 C 34.933594 68.59375 30.140625 68.382812 28.332031 68.222656 C 25.773438 68.0625 23.644531 67.421875 23.644531 67.421875 C 22.898438 68.703125 21.621094 72.972656 21.195312 74.734375 C 20.769531 76.496094 19.96875 78.417969 19.542969 79.167969 C 18.90625 80.339844 18 81.195312 17.199219 80.875 C 15.65625 80.339844 14.859375 78.898438 14.539062 76.976562 C 14.058594 73.988281 14.433594 70.839844 14.804688 69.074219 C 15.285156 66.566406 16.242188 63.417969 16.242188 63.417969 C 15.390625 62.5625 12.78125 60 9.800781 54.5 C 7.402344 50.121094 5.539062 44.25 5.59375 38.429688 C 5.644531 32.234375 6.976562 26.253906 9.746094 20.648438 C 11.078125 17.925781 12.195312 16.324219 13.152344 14.777344 C 14.164062 13.175781 15.390625 11.464844 15.496094 11.464844 C 15.65625 11.464844 18.480469 17.125 21.300781 23.746094 C 24.070312 30.582031 24.921875 33.144531 25.878906 36.933594 Z M 33.175781 20.117188 C 31.792969 21.128906 31.632812 21.503906 30.726562 22.464844 C 29.769531 23.480469 29.609375 24.28125 29.769531 25.613281 C 29.820312 25.933594 30.035156 26.683594 30.195312 27.003906 C 30.886719 28.125 31.84375 28.660156 33.015625 28.660156 C 33.707031 28.660156 34.988281 28.015625 36.265625 26.308594 C 37.542969 24.601562 37.808594 23.960938 37.808594 23.160156 C 37.808594 22.519531 37.648438 21.769531 36.851562 20.917969 C 36 19.902344 34.1875 19.421875 33.175781 20.117188 Z M 15.335938 13.707031 C 15.335938 13.707031 14.644531 15.308594 13.847656 17.230469 C 12.621094 20.007812 11.023438 23.851562 10.066406 27.214844 C 8.789062 31.863281 7.882812 38.695312 9.160156 43.769531 C 9.691406 45.902344 10.277344 47.453125 11.023438 49.269531 C 12.355469 52.417969 14.378906 55.566406 18.054688 59.039062 C 18.054688 59.039062 19.277344 57.382812 19.757812 54.445312 C 20.023438 52.738281 20.023438 52.3125 20.128906 50.921875 C 20.289062 48.785156 20.289062 46.492188 20.34375 43.875 C 20.449219 40.457031 20.128906 36.667969 19.277344 31.542969 C 18.796875 28.820312 17.945312 23.90625 17.308594 21.128906 C 16.613281 18.355469 15.335938 13.707031 15.335938 13.707031 Z M 15.335938 13.707031 "/>
<path style=" stroke:none;fill-rule:nonzero;fill:rgb(100%,100%,100%);fill-opacity:1;" d="M 145.734375 75.601562 C 143.125 78.109375 139.664062 79.550781 136.09375 79.550781 C 133.007812 79.550781 129.917969 78.429688 127.46875 76.507812 C 124.273438 73.945312 122.515625 70.3125 122.515625 66.203125 C 122.515625 62.570312 123.902344 59.261719 126.511719 56.753906 C 129.066406 54.242188 132.582031 52.800781 136.09375 52.800781 C 139.609375 52.800781 143.175781 54.242188 145.734375 56.753906 C 148.34375 59.261719 149.671875 62.625 149.671875 66.203125 C 149.671875 69.78125 148.289062 73.089844 145.734375 75.601562 Z M 142.75 66.148438 C 142.75 61.984375 139.980469 58.675781 136.09375 58.675781 C 132.15625 58.675781 129.4375 61.984375 129.4375 66.148438 C 129.4375 70.367188 132.046875 73.625 136.09375 73.625 C 140.035156 73.625 142.75 70.3125 142.75 66.148438 Z M 142.75 66.148438 "/>
<path style=" stroke:none;fill-rule:nonzero;fill:rgb(100%,100%,100%);fill-opacity:1;" d="M 152.285156 53.328125 L 159.527344 53.328125 C 159.6875 53.328125 159.792969 53.328125 159.953125 53.328125 C 163.46875 53.328125 166.183594 53.382812 168.367188 55.039062 C 170.230469 56.480469 171.1875 58.613281 171.1875 61.285156 C 171.1875 65.234375 169.21875 67.796875 165.492188 68.546875 L 172.414062 78.796875 L 164.585938 78.796875 L 158.726562 68.8125 L 158.726562 78.796875 L 152.230469 78.796875 L 152.230469 53.328125 Z M 160.058594 65.449219 C 162.988281 65.449219 164.371094 64.488281 164.371094 62.246094 C 164.371094 59.574219 163.042969 58.722656 160.164062 58.722656 L 158.78125 58.722656 L 158.78125 65.449219 Z M 160.058594 65.449219 "/>
<path style=" stroke:none;fill-rule:nonzero;fill:rgb(100%,100%,100%);fill-opacity:1;" d="M 174.914062 78.855469 L 174.914062 53.332031 L 182.15625 53.332031 C 182.3125 53.332031 182.527344 53.332031 182.632812 53.332031 C 185.828125 53.332031 188.382812 53.386719 190.355469 54.667969 C 192.589844 56.109375 193.921875 58.726562 193.921875 62.035156 C 193.921875 65.453125 192.699219 67.960938 190.40625 69.296875 C 188.652344 70.3125 186.734375 70.417969 184.335938 70.417969 C 183.804688 70.417969 183.21875 70.417969 182.6875 70.417969 L 181.410156 70.417969 L 181.410156 78.855469 Z M 182.738281 64.757812 C 185.722656 64.757812 187.214844 64.222656 187.214844 61.769531 C 187.214844 59.3125 185.617188 58.777344 182.792969 58.777344 L 181.410156 58.777344 L 181.410156 64.757812 Z M 182.738281 64.757812 "/>
<path style=" stroke:none;fill-rule:nonzero;fill:rgb(100%,100%,100%);fill-opacity:1;" d="M 203.933594 74.101562 C 205.851562 74.101562 207.074219 72.980469 207.074219 71.484375 C 207.074219 69.457031 205.691406 68.867188 202.816406 68.066406 C 198.234375 66.839844 196 65.023438 196 61.019531 C 196 56.269531 199.460938 52.746094 204.785156 52.746094 C 207.609375 52.746094 210.109375 53.492188 212.347656 55.039062 L 210.164062 60.058594 C 208.566406 58.722656 206.863281 58.03125 205.265625 58.03125 C 203.5625 58.03125 202.441406 58.9375 202.441406 60.167969 C 202.441406 61.980469 204.199219 62.355469 206.488281 62.996094 C 211.015625 64.222656 213.519531 65.878906 213.519531 70.578125 C 213.519531 75.917969 209.738281 79.546875 203.773438 79.546875 C 200.207031 79.546875 197.492188 78.425781 194.722656 75.808594 L 197.863281 70.628906 C 199.886719 72.875 201.910156 74.101562 203.933594 74.101562 Z M 203.933594 74.101562 "/>
<path style=" stroke:none;fill-rule:nonzero;fill:rgb(100%,100%,100%);fill-opacity:1;" d="M 109.949219 73.621094 C 105.957031 73.621094 103.398438 70.84375 103.292969 66.144531 C 103.398438 61.394531 106.007812 58.671875 109.949219 58.671875 C 112.1875 58.671875 113.996094 59.632812 115.382812 61.605469 L 121.398438 58.722656 C 118.789062 54.824219 114.902344 52.851562 109.949219 52.851562 C 102.121094 52.851562 96.371094 58.457031 96.371094 66.199219 C 96.371094 73.941406 102.121094 79.546875 109.949219 79.546875 C 114.902344 79.546875 118.789062 77.570312 121.398438 73.671875 L 115.382812 70.789062 C 113.996094 72.660156 112.238281 73.621094 109.949219 73.621094 Z M 109.949219 73.621094 "/>
<path style=" stroke:none;fill-rule:nonzero;fill:rgb(100%,100%,100%);fill-opacity:1;" d="M 118.046875 47.242188 L 118.046875 30.53125 C 117.675781 32.773438 117.140625 34.324219 116.875 35.335938 L 113.414062 47.296875 L 108.78125 47.296875 L 105.320312 35.335938 C 105.054688 34.324219 104.519531 32.828125 104.148438 30.53125 L 104.148438 47.242188 L 97.652344 47.242188 L 97.652344 21.722656 L 106.4375 21.722656 L 110.273438 34.910156 C 110.539062 35.710938 110.859375 36.832031 111.070312 38.378906 C 111.230469 36.9375 111.550781 35.816406 111.871094 34.910156 L 115.757812 21.773438 L 124.542969 21.773438 L 124.542969 47.296875 L 118.046875 47.296875 Z M 118.046875 47.242188 "/>
<path style=" stroke:none;fill-rule:nonzero;fill:rgb(100%,100%,100%);fill-opacity:1;" d="M 128.484375 21.726562 L 144.085938 21.726562 L 144.085938 27.332031 L 135.246094 27.332031 L 135.246094 31.765625 L 143.609375 31.765625 L 143.609375 37.210938 L 135.300781 37.210938 L 135.300781 41.535156 L 144.140625 41.535156 L 144.140625 47.246094 L 128.539062 47.246094 L 128.539062 21.726562 Z M 128.484375 21.726562 "/>
<path style=" stroke:none;fill-rule:nonzero;fill:rgb(100%,100%,100%);fill-opacity:1;" d="M 147.597656 21.722656 L 154.839844 21.722656 C 155 21.722656 155.105469 21.722656 155.265625 21.722656 C 158.78125 21.722656 161.496094 21.777344 163.679688 23.429688 C 165.542969 24.871094 166.5 27.007812 166.5 29.679688 C 166.5 33.628906 164.53125 36.191406 160.804688 36.9375 L 167.726562 47.191406 L 159.898438 47.191406 L 154.039062 37.207031 L 154.039062 47.191406 L 147.542969 47.191406 L 147.542969 21.722656 Z M 155.425781 33.84375 C 158.355469 33.84375 159.738281 32.882812 159.738281 30.640625 C 159.738281 27.96875 158.40625 27.117188 155.53125 27.117188 L 154.148438 27.117188 L 154.148438 33.84375 Z M 155.425781 33.84375 "/>
<path style=" stroke:none;fill-rule:nonzero;fill:rgb(100%,100%,100%);fill-opacity:1;" d="M 182.160156 41.960938 C 178.167969 41.960938 175.609375 39.183594 175.503906 34.484375 C 175.609375 29.734375 178.21875 27.011719 182.160156 27.011719 C 184.398438 27.011719 186.207031 27.972656 187.589844 29.949219 L 193.609375 27.066406 C 191 23.167969 187.113281 21.191406 182.160156 21.191406 C 174.332031 21.191406 168.582031 26.796875 168.582031 34.539062 C 168.582031 42.28125 174.332031 47.886719 182.160156 47.886719 C 187.113281 47.886719 191 45.910156 193.609375 42.015625 L 187.589844 39.132812 C 186.152344 41 184.398438 41.960938 182.160156 41.960938 Z M 182.160156 41.960938 "/>
<path style=" stroke:none;fill-rule:nonzero;fill:rgb(100%,100%,100%);fill-opacity:1;" d="M 195.144531 47.726562 L 202.972656 47.726562 L 218.308594 21.667969 L 210.429688 21.667969 L 205.847656 29.410156 L 200.363281 21.667969 L 192.75 21.667969 L 202.335938 35.445312 Z M 195.144531 47.726562 "/>
</g>
</svg>
